# xmcd
#
# Track frame offsets:
#	150
#	16818
#	35421
#	52965
#	68141
#	90030
#	109634
#	126115
#	144596
#	162929
#	183052
#	198300
#	215871
#	235130
#	256006
#	272218
#	287098
#	308399
#
# Disc length: 4371 seconds
#
# Revision: 0
# Processed by: cddbd v1.5.2PL0 Copyright (c) Steve Scherf et al.
# Submitted via: EasyCDDAExtractor 15.3.0.1
#
DISCID=ec111112
DTITLE=Fey - Lo Esencial De Fey - CD 2
DYEAR=2009
DGENRE=Latin
TTITLE0=Media Naranja
TTITLE1=Muevelo
TTITLE2=Me Enamoro De Ti
TTITLE3=Fiebre Del Sabado
TTITLE4=Desmargaritando El Corazon
TTITLE5=El
TTITLE6=Canela
TTITLE7=La Soledad Me Matara
TTITLE8=Como Pan Y Chocolate
TTITLE9=Tierna La Noche
TTITLE10=No Tengo Novio
TTITLE11=Te Pertenezco
TTITLE12=Almibar
TTITLE13=Bajo El Arcoiris
TTITLE14=Tirando A Matar
TTITLE15=Bailando Bajo La Lluvia
TTITLE16=Azucar Amargo (Bitter Sugar)
TTITLE17=La Noche Se Mueve (Remix)
EXTD=
EXTT0=
EXTT1=
EXTT2=
EXTT3=
EXTT4=
EXTT5=
EXTT6=
EXTT7=
EXTT8=
EXTT9=
EXTT10=
EXTT11=
EXTT12=
EXTT13=
EXTT14=
EXTT15=
EXTT16=
EXTT17=
PLAYORDER=
